<svg version="1.2" xmlns="http://www.w3.org/2000/svg" viewBox="0 0 1588 505" width="1588" height="505">
	<title>DishTV_India_Logo_-_New-svg</title>
	<style>
		.s0 { fill: #ef4624 } 
	</style>
	<path id="Layer" fill-rule="evenodd" class="s0" d="m0.4 388.2c0-77.6 44.6-116.9 110.2-116.9q7.7 0.1 15.2 0.7 7.6 0.7 15.1 2.1 7.5 1.3 14.9 3.2 7.4 2 14.5 4.5 0.4 0.2 0.8 0.1 0.3 0 0.7-0.2 0.3-0.2 0.4-0.6 0.2-0.3 0.2-0.7v-85.9c-0.1-1.5 0.2-2.9 0.7-4.3 0.6-1.4 1.4-2.7 2.5-3.7 1-1.1 2.3-1.9 3.7-2.5 1.3-0.5 2.8-0.8 4.3-0.8h46.5c1.5 0 3 0.3 4.4 0.8 1.4 0.6 2.6 1.4 3.7 2.5 1 1 1.8 2.3 2.4 3.7 0.5 1.4 0.8 2.8 0.8 4.3v294.9c0 1.5-0.3 2.9-0.8 4.3-0.6 1.4-1.4 2.7-2.4 3.7-1.1 1.1-2.4 1.9-3.7 2.4-1.4 0.6-2.9 0.9-4.4 0.8h-40.5c-1.5 0.1-3-0.2-4.4-0.7-1.4-0.6-2.6-1.4-3.7-2.5-1.1-1-1.9-2.3-2.5-3.7-0.5-1.3-0.8-2.8-0.8-4.3v-6.4c0-1.5-1.1-2.1-2.3-1.3q-7.8 5.7-16.4 10.1-8.6 4.4-17.8 7.3-9.2 3-18.7 4.4-9.5 1.5-19.2 1.4c-59.7 0-103.8-39.3-103.8-116.6zm171.2 50.4q0.1-0.1 0.2-0.3 0.1-0.1 0.2-0.3 0.1-0.1 0.2-0.3 0.1-0.2 0.1-0.3v-108.7q0-0.3-0.1-0.5-0.1-0.2-0.2-0.4-0.2-0.2-0.4-0.3-0.1-0.2-0.4-0.3-5.5-1.8-11.1-3.3-5.7-1.4-11.4-2.5-5.7-1-11.5-1.7-5.8-0.6-11.6-0.9c-39.7 0-54.1 22-54.1 69.8 0 47.7 14.4 69.3 49.8 69.3 15.4-0.3 34.9-9.9 50.3-19.3z"/>
	<path id="Layer" class="s0" d="m293 294.2c0-6 4.9-11 11-11h47c6.1 0 11 5 11 11v198c0 6-4.9 11-11 11h-47c-6.1 0-11-5-11-11z"/>
	<path id="Layer" fill-rule="evenodd" class="s0" d="m506 502.4c-70.3 0-112.9-15.5-112.9-58.2 0-1.5 0.3-3 0.8-4.4 0.6-1.3 1.4-2.6 2.5-3.6 1-1.1 2.3-1.9 3.7-2.5 1.3-0.5 2.8-0.8 4.3-0.8h31.2q3.3-0.1 6.4 0.6 3.2 0.6 6.2 2 3 1.4 5.5 3.4 2.6 2 4.6 4.6c7.6 9.8 24.4 14.6 42.5 14.6 35.6 0 49.4-8.4 49.4-21.6 0-10-11.2-15.8-25.7-20.1-14.6-4.4-34.5-8.4-54.2-13.2-39.5-10.3-77.6-26.8-77.6-68.5 0-46.7 46.7-66.2 106.8-66.2 70.3 0 112.8 15.5 112.8 58.2 0 1.5-0.2 2.9-0.8 4.3-0.6 1.4-1.4 2.6-2.4 3.7-1.1 1-2.3 1.9-3.7 2.4-1.4 0.6-2.9 0.8-4.4 0.8h-31.1q-3.2 0.1-6.4-0.5-3.2-0.6-6.2-2-3-1.4-5.5-3.4-2.6-2-4.6-4.6c-7.7-9.5-24.1-14.6-42.6-14.6-29.3 0-42.9 8.4-42.9 21.6 0 10.1 11.2 15.7 25.7 20 14.4 4.3 34.4 7.9 54.1 13 39.6 10.3 77.7 27.1 77.7 69.1 0 46.7-46.6 65.9-113.2 65.9z"/>
	<path id="Layer" fill-rule="evenodd" class="s0" d="m812.5 372.5c0-36-16.8-51.4-41.2-51.4-21.6 0-42 15-57 30.3q0 0.2 0 0.3 0 0.2 0 0.3 0 0.1 0 0.3 0 0.1 0 0.2v139.4c0 1.5-0.3 3-0.8 4.3-0.6 1.4-1.4 2.7-2.5 3.7-1 1.1-2.3 1.9-3.6 2.4-1.4 0.6-2.9 0.9-4.4 0.9h-47c-1.5 0-2.9-0.3-4.3-0.9-1.4-0.5-2.6-1.3-3.7-2.4-1-1-1.9-2.3-2.4-3.7-0.6-1.3-0.9-2.8-0.8-4.3v-273.2c-0.1-1.5 0.2-2.9 0.8-4.3 0.5-1.4 1.3-2.7 2.4-3.7 1-1.1 2.3-1.9 3.7-2.5 1.4-0.6 2.8-0.8 4.3-0.8h46.6c1.5 0 3 0.2 4.4 0.8 1.3 0.6 2.6 1.4 3.7 2.5 1 1 1.8 2.3 2.4 3.7 0.5 1.4 0.8 2.8 0.8 4.3v84c0 1.6 1.2 2.2 2.4 1.2 19.6-16.8 40.5-29.9 72-29.9 54.7 0 93.2 28.7 93.2 98.6v119.3c0.1 1.5-0.2 3-0.8 4.3-0.5 1.4-1.4 2.7-2.4 3.7-1.1 1.1-2.3 1.9-3.7 2.5-1.4 0.5-2.9 0.8-4.3 0.8h-46.5c-1.5 0-3-0.3-4.4-0.9-1.4-0.5-2.6-1.3-3.7-2.4-1-1-1.8-2.3-2.4-3.7-0.6-1.3-0.8-2.8-0.8-4.3z"/>
	<path id="Layer" fill-rule="evenodd" class="s0" d="m362.9 262.1c-0.2 1.1-0.6 2.2-1.2 3.3-0.6 1-1.4 1.9-2.3 2.6-1 0.7-2 1.2-3.1 1.5-1.2 0.3-2.4 0.4-3.5 0.3h-50c-1.2 0.1-2.4 0.1-3.6-0.3-1.1-0.3-2.2-0.8-3.1-1.5-0.9-0.7-1.7-1.6-2.3-2.6-0.6-1-1-2.2-1.2-3.3v-38.2c0.2-1.2 0.6-2.3 1.2-3.4 0.6-1 1.4-1.9 2.3-2.6 0.9-0.7 2-1.2 3.1-1.5 1.2-0.3 2.4-0.4 3.6-0.3h50c1.1-0.1 2.3 0 3.5 0.3 1.1 0.3 2.1 0.8 3.1 1.6 0.9 0.7 1.7 1.6 2.3 2.6 0.6 1 1 2.1 1.2 3.3z"/>
	<path id="Layer" class="s0" d=""/>
	<path id="Layer" fill-rule="evenodd" class="s0" d="m1206.5 280.3q0.8 1.6 1.4 3.2 0.6 1.7 1 3.4 0.3 1.8 0.4 3.6 0.2 1.7 0 3.5v115.6l115.2-134.4h49.4l-143 204q-2.4 3.4-5.2 6.5-2.7 3-5.8 5.8-3.1 2.8-6.4 5.3-3.4 2.4-7 4.5-2.5 0.8-5 1.3-2.6 0.6-5.2 0.9-2.6 0.3-5.3 0.4-2.6 0.1-5.2-0.1h-18.6q-2.6 0.2-5.2 0-2.6-0.1-5.1-0.6-2.6-0.6-5-1.4-2.5-0.9-4.8-2.1c-8.4-6.2-7.2-25.2-7.2-25.2v-174.7c0 0-1.9-15.6 3.3-20.7 3.7-3.5 15.8-2.7 15.8-2.7h30.1c0 0 12.9-1.4 17.4 3.9z"/>
	<path id="Layer" fill-rule="evenodd" class="s0" d="m1098.8 453.3h-7.6c-9.4 0-17.5 2.5-28.7 2.5-22.8 0-38.1-16.2-38.1-45.9v-76.1q0-0.3 0.1-0.6 0.2-0.2 0.4-0.4 0.2-0.2 0.4-0.4 0.3-0.1 0.6-0.1h58.1c1.4 0 2.9-0.3 4.3-0.8 1.4-0.6 2.6-1.4 3.7-2.5 1-1 1.8-2.3 2.4-3.6 0.5-1.4 0.8-2.9 0.7-4.4v-25.2c0-1.4-0.3-2.8-0.9-4.1-0.6-1.3-1.4-2.4-2.5-3.4-1-1-2.2-1.8-3.6-2.3-1.3-0.5-2.7-0.8-4.1-0.7h-58.1q-0.3 0-0.6-0.2-0.3-0.1-0.5-0.3-0.2-0.2-0.3-0.5-0.1-0.3-0.1-0.6v-70c0.1-1.5-0.2-3-0.8-4.4-0.5-1.4-1.4-2.6-2.4-3.7-1.1-1-2.3-1.9-3.7-2.4-1.4-0.6-2.9-0.9-4.4-0.9h-46.5c-1.5 0-3 0.3-4.4 0.9-1.3 0.5-2.6 1.4-3.6 2.4-1.1 1.1-1.9 2.3-2.5 3.7-0.5 1.4-0.8 2.9-0.8 4.4v71.6h-16.8c-1.5-0.1-2.9 0.2-4.3 0.8-1.4 0.5-2.6 1.4-3.7 2.4-1 1.1-1.9 2.3-2.4 3.7-0.6 1.4-0.9 2.8-0.8 4.3v25.2c-0.1 1.5 0.2 3 0.8 4.3 0.5 1.4 1.4 2.7 2.4 3.7 1.1 1.1 2.3 1.9 3.7 2.5 1.4 0.5 2.8 0.8 4.3 0.8h16.8v77.6c0 63.2 29.2 92.4 88.1 92.4q6.9 0 13.8-0.2 7-0.3 13.9-0.8 6.9-0.5 13.8-1.3 6.8-0.8 13.7-1.9c1.5-0.2 3-0.6 4.3-1.2 1.4-0.7 2.6-1.6 3.7-2.7 1-1 1.8-2.3 2.5-3.7 0.6-1.4 0.9-2.8 1-4.3v-22.2c0.1-1.5-0.2-3-0.7-4.4-0.6-1.4-1.4-2.7-2.4-3.8-1.1-1-2.4-1.9-3.8-2.4-1.4-0.6-2.8-0.9-4.4-0.8z"/>
	<path id="Layer" class="s0" d="m1324.6 274.9l48.7 1.5 152.4-226.9-201.1 225.4z"/>
	<path id="Layer" class="s0" d="m331.3 202.3c0 0 703.7-281.8 1118.2-82.4l36.3-41.2c0 0-313-240.1-1154.5 123.6z"/>
	<path id="Layer" class="s0" d="m1477.4 138.6l31.9-46.1c0 0 235.4 169.2-110.5 407.5 0.3 0 260.1-202.1 78.6-361.4z"/>
</svg>