<svg xmlns:rdf="http://www.w3.org/1999/02/22-rdf-syntax-ns#" xmlns="http://www.w3.org/2000/svg" height="106px" width="400px" version="1.1" preserveAspectRatio="none" xmlns:cc="http://creativecommons.org/ns#" xmlns:dc="http://purl.org/dc/elements/1.1/" viewBox="0 0 400 106">
 <metadata>
  <rdf:RDF>
   <cc:Work rdf:about="">
    <dc:format>image/svg+xml</dc:format>
    <dc:type rdf:resource="http://purl.org/dc/dcmitype/StillImage"/>
    <dc:title/>
   </cc:Work>
  </rdf:RDF>
 </metadata>
 <path fill="#055a61" d="m9.8765,92.274c0.2845-0.976,1.2575-5.895,2.1605-10.93l1.642-9.155,3.163-0.56c1.74-0.308,5.421-0.845,8.179-1.193l5.015-0.632-0.366,4.597-0.365,4.598h7.934c4.363,0,8.159,0.225,8.435,0.501l0.501,0.501-1.107,6.749-1.106,6.749-17.303,0.274-17.302,0.274,0.52-1.774zm40.676,0c0.03-0.975,1.038-7.142,2.25-13.702l2.203-11.929,2.548-0.682c1.402-0.375,5.172-1.009,8.379-1.409l5.829-0.729-0.601,3.338c-0.33,1.836-0.895,5.25-1.256,7.588l-0.655,4.25h10.129,10.127l-0.1,2.25c-0.05,1.237-0.617,4.5-1.256,7.25l-1.16,5-18.244,0.273-18.243,0.272,0.05-1.772zm52.697,1.007c-0.23-0.429-0.21-8.274,0-17.434l0.45-16.653,4.64-0.635c2.54-0.348,5.87-0.877,7.38-1.175l2.75-0.542v7.58,7.579h1.3,1.3l1.88-7.553c1.03-4.153,2.17-7.731,2.52-7.949,1.03-0.633,13.34-2.488,13.76-2.072,0.21,0.207-2.3,9.084-5.57,19.725l-5.95,19.349-12.04,0.28-12.04,0.28-0.42-0.78zm41.88-12.528c1.3-7.287,2.62-14.824,2.93-16.75,0.32-1.927,0.89-5.273,1.27-7.437l0.69-3.934,17.26-2.469c9.49-1.359,17.43-2.288,17.65-2.066s-0.1,2.75-0.64,5.618l-1.03,5.214-9.08,0.286-9.07,0.286-1.24,6.5c-0.68,3.575-1.26,7.962-1.3,9.75l-0.1,3.249h9.33c5.14,0,9.58,0.239,9.87,0.531l0.53,0.532-0.85,4.718c-0.47,2.595-1.09,5.731-1.38,6.969l-0.54,2.25h-18.35-18.35l2.36-13.249zm42.01,9.539c0.4-2.085,2.34-12.789,4.32-23.787l3.59-19.995,6.48-1.208c3.56-0.664,7.27-1.229,8.23-1.254l1.75-0.05v2.05,2.05l5.75-0.3,5.75-0.3,0.31-2.643,0.3-2.643,8.04-1.176c4.43-0.647,8.26-0.966,8.51-0.709,0.26,0.257,0.16,2.134-0.23,4.172l-0.69,3.705-4.87,5.026-4.87,5.025,0.1,2.622c0,1.441,1.08,8.02,2.31,14.618l2.24,11.997,1.45,0.268,1.44,0.268,7.91-24.954,7.91-24.954,4.09-0.615c2.25-0.338,5.33-0.851,6.84-1.14l2.75-0.527v1.111c0,0.611-1.35,5.671-3.01,11.244-1.66,5.574-3.2,11.184-3.43,12.469l-0.43,2.335h4.97,4.96l0.4-1.25c0.23-0.687,0.7-6.941,1.07-13.897l0.66-12.646,5.65-0.662c3.12-0.366,6.37-0.869,7.25-1.119l1.59-0.457-0.3,8.765c-0.16,4.821-0.53,18.442-0.81,30.267-0.29,11.825-0.54,21.611-0.55,21.75,0,0.138-3.62,0.25-8.02,0.25h-8v-8.5-8.5h-7-7v1.25c0,0.688-0.96,4.513-2.14,8.5l-2.19,7.25h-15.36c-8.44,0-15.35-0.21-15.35-0.467,0-1.633-5.25-32.125-5.64-32.755-0.26-0.428-1.37-0.778-2.45-0.778h-1.97l-0.56,1.456c-0.31,0.801-1.76,8.339-3.22,16.75l-2.67,15.293-8.3,0.291-8.3,0.292,0.74-3.792zm108.72-1.517-5.12-5.274,4.61-26.112,4.62-26.113,7.87-1.204c4.33-0.663,8.06-1.015,8.29-0.784,0.23,0.232-1.39,10.725-3.6,23.317s-4.02,23.908-4.02,25.145v2.25h4.98,4.98l0.51-2.25c1.88-8.276,2.48-11.522,2.51-13.5v-2.25h-2-2v-1.451c0-0.798,0.49-3.723,1.08-6.5l1.09-5.049h10.41,10.42l-0.1,1.25c0,0.688-1.74,10.7-3.81,22.25l-3.75,21-15.95,0.274-15.95,0.273-5.13-5.273zm43.65,4.418c0-1.996,11.97-68.498,12.41-68.936,0.27-0.27,2.54-0.722,5.04-1.004l4.55-0.514v-1.931-1.929l-4.65,0.691-4.65,0.702,0.65-3.262c0.36-1.79,0.65-3.65,0.65-4.14v-0.87h18.57,18.56l-0.49,1.75c-0.27,0.96-0.78,3.32-1.14,5.25-0.36,1.925-0.87,4.288-1.14,5.25l-0.49,1.75h-9.94c-5.46,0-9.93,0.185-9.93,0.412s-0.67,3.939-1.5,8.25c-0.82,4.311-1.5,8.406-1.5,9.101v1.262l8.56-0.12c4.71-0.07,8.7,0.04,8.87,0.237s-0.16,3.396-0.73,7.108l-1.03,6.75h-9.29-9.29l-0.61,3.75c-0.34,2.063-1.03,5.91-1.54,8.549-0.52,2.64-0.94,5.452-0.94,6.25v1.451h10,10v1.168c0,0.643-0.5,4.018-1.1,7.5l-1.11,6.332h-18.39-18.4v-0.808zm-323.97-31.865c0.02-0.456,1.952-11.629,4.298-24.829l4.266-24,8.291-0.29,8.29-0.29-0.584,2.79c-0.322,1.53-2.164,11.79-4.094,22.79s-3.7,20.516-3.933,21.146l-0.424,1.147-5.321,0.656c-2.926,0.361-6.559,0.894-8.071,1.183l-2.75,0.527,0.03-0.83zm41.443-6.499c0.704-2.967,7.515-41.08,7.522-42.08v-0.75h18.37,18.367l-0.85,4.75c-0.467,2.61-1.097,5.762-1.386,7l-0.53,2.25h-9.987c-5.489,0-9.982,0.112-9.982,0.25,0,0.137-0.676,4.075-1.499,8.75-0.822,4.675-1.497,8.869-1.499,9.321v0.821l9.002-0.321,9.002-0.321-0.65,3.5c-0.35,1.925-1.026,3.75-1.493,4.056-0.469,0.306-7.716,1.35-16.106,2.321-8.389,0.97-16.059,1.993-17.043,2.273l-1.789,0.51,0.553-2.33zm47.539-13.501c0-5.406,0.29-14.217,0.65-19.579l0.64-9.75h8.46,8.47l-0.59,4.25c-0.32,2.34-0.84,8.75-1.15,14.25-0.32,5.5-0.8,11.864-1.08,14.143l-0.5,4.143-4.71,0.645c-2.58,0.355-5.94,0.888-7.45,1.186l-2.75,0.542v-9.829zm23.19,5.503c0.26-0.733,2.46-8.867,4.89-18.076l4.41-16.746h7.75,7.75v0.64c0,0.53-2.97,10.312-9.12,30.045l-0.99,3.182-2.7,0.503c-1.48,0.277-4.89,0.794-7.58,1.15l-4.89,0.646,0.48-1.332zm24.29-4.983c0.34-1.842,1.62-9.199,2.85-16.349l2.23-13,18.21-0.27,18.22-0.27v0.69c0,0.38-0.5,3.54-1.1,7.018l-1.11,6.332h-10.23-10.24l-1.25,8.4-1.25,8.4-4.66,0.627c-2.56,0.345-6.38,0.884-8.47,1.199l-3.82,0.572,0.62-3.348zm44.56-3.998c0-0.743,1.04-6.751,2.26-13.351l2.21-12,16.43-0.28,16.43-0.27,4.89,4.77,4.88,4.78-0.61,4.762c-0.34,2.619-0.85,5.384-1.14,6.144l-0.53,1.381-5.69,0.68c-3.12,0.375-6.72,0.93-8,1.233l-2.32,0.551,0.32-5.876,0.32-5.875h-5.47-5.47l-1.03,5.719-1.03,5.719-1,0.93-1,0.93-7.25,0.703-7.25,0.702,0.1-1.352zm130.32-3.1c0.33-1.238,0.61-3.411,0.62-4.828v-2.576l8.1-1.24c4.45-0.682,8.29-1.048,8.53-0.814,0.23,0.234,0.12,2.964-0.24,6.067l-0.67,5.641h-8.47-8.48l0.6-2.25zm-71.37-3.974c0-0.752,1.28-5.172,2.84-9.822l2.84-8.454,12.66-0.28,12.66-0.28v7.962,7.962l-1.97,0.625c-1.08,0.344-5.03,0.735-8.77,0.87-3.75,0.134-7.25,0.502-7.79,0.817-0.53,0.316-3.56,0.888-6.72,1.27l-5.75,0.698v-1.367zm45.77-6.209,0.49-2.068,5.08-5.25,5.09-5.25,12.08,0,12.07,0,4.29,4.37,4.29,4.372-2.33,0.556c-1.28,0.305-8.63,1.291-16.33,2.191s-16.52,1.976-19.61,2.391l-5.61,0.755,0.49-2.067z"/>
</svg>
