<svg version="1.2" xmlns="http://www.w3.org/2000/svg" viewBox="0 0 1505 170" width="1505" height="170">
	<title>WesternUnion_HorizontalLockup_YellowBlack_(1)-svg</title>
	<style>
		.s0 { fill: #ffdd00 } 
		.s1 { fill: #000000 } 
	</style>
	<g id="#ffdd00ff">
		<path id="Layer" class="s0" d="m0.1 0.4c24.6-0.1 49.1 0 73.7 0q38.8 67 77.5 134.1c-3.2 5.3-6.2 10.7-9.4 16-4.1 6.8-9.6 13.1-16.9 16.5-5.4 2.7-12 3.3-17.8 1.4-6.9-2.2-12.5-7.1-16.8-12.7-2.7-3.4-4.7-7.3-6.9-11-27.8-48.1-55.6-96.2-83.4-144.3zm98 0c24.5-0.1 49.1 0 73.6 0 17.2 29.6 34.4 59.3 51.5 88.9 1.1 1.8 2 3.8 3.5 5.3 3.3 3.8 8.7 5.7 13.7 4.4 3.7-0.9 6.8-3.6 8.9-6.8-17.7-30.6-35.4-61.2-53.1-91.8q36.8 0 73.7 0 14.2 24.6 28.4 49.3-29 50.1-58 100.3c-3.8 6.5-8.8 12.4-15.4 16.1-5.5 3.2-12.3 4.3-18.5 2.6-7.1-1.8-12.9-6.6-17.4-12.3-3.1-3.8-5.4-8.1-7.8-12.4q-41.6-71.8-83.1-143.6z"/>
	</g>
	<g id="#000000ff">
		<path id="Layer" fill-rule="evenodd" class="s1" d="m1277 18.3c2.9-0.6 6.1-0.2 8.7 1.3 3.7 1.9 6.4 5.7 6.9 9.8 0.6 4.3-1.2 8.8-4.5 11.5-2.5 2.1-5.8 3.2-9 3.1-5.1-0.1-10.1-3.4-12-8.2-1.9-4.9-0.5-10.9 3.4-14.4 1.8-1.6 4.1-2.7 6.5-3.1zm-935.7 0.6q12.2 0 24.4 0c5.6 21.8 11.3 43.6 16.7 65.4 2.9 11.8 5.9 23.6 8.1 35.6 1.9-11.2 4.5-22.3 7.2-33.4 5.5-22.6 11.3-45.1 17.1-67.6q12.2 0 24.5 0c5.1 19.9 10.4 39.7 15.3 59.6 3.3 13.2 6.5 26.4 9.1 39.7 2.9-15.5 6.8-30.9 10.6-46.3 4.5-17.7 9.1-35.3 13.6-53q11.8 0 23.5 0c-11.8 43.7-23.8 87.4-35.6 131.1q-12.9 0-25.8 0c-4.6-17.7-9.2-35.4-13.6-53.2-3.6-14.6-7.2-29.2-9.9-44.1-2 11.6-4.9 23.1-7.8 34.5-5.4 21-11 41.9-16.7 62.8q-12.6 0-25.2 0c-11.8-43.7-23.7-87.4-35.5-131.1zm702.7 0q11.7 0 23.3 0 0 32.7 0 65.4c0.2 8.2-0.6 16.6 1.5 24.6 1.7 6.8 5.5 13.3 11.5 17.1 5.2 3.3 11.5 4.4 17.6 4.2 7.7-0.1 15.8-2.9 20.9-9 5.7-6.7 7.5-15.8 7.6-24.3q0-39 0-78 11.6 0 23.1 0 0 31.5 0 63c-0.1 8.4 0.4 16.8-0.8 25.2-1.2 8.6-4 17.1-8.9 24.4-4.1 6-9.7 11-16.1 14.4-8.4 4.3-17.9 6.1-27.3 5.9-6.9 0.1-13.8-0.9-20.3-3.2-7.5-2.7-14.4-7.3-19.6-13.4-5.9-7.1-9.4-15.8-11.1-24.8-1.8-9.6-1.3-19.4-1.4-29.1q0-31.2 0-62.4zm-341.9 12.6c7.2-1.8 14.4-3.6 21.7-5.4q0 13.7 0 27.4 7.3 0 14.6 0c0.1 6.2 0.1 12.5 0.3 18.7q-7.5 0-14.9 0c0 18.5 0 37.1 0 55.7 0 2.4 2.4 4.3 4.7 4.4 3.5 0.2 6.9-0.2 10.3-0.6 0 6.1 0 12.3 0 18.4-6 1.7-12.3 1.8-18.6 1.7-4.4 0.1-8.9-1.5-12.1-4.5-3.2-3-5.1-7.3-5.7-11.7-0.5-3.3-0.3-6.7-0.3-10.1q0-26.7 0-53.3c-3.7 0-7.4 0-11.2 0q0-9.4 0-18.7 5.6 0 11.2 0 0-11 0-22zm-179.7 27.9c12.1-8 27.8-9.7 41.7-5.9 9.9 2.6 18.8 8.9 24.6 17.4 7.7 11.3 10 25.4 9.5 38.8q-37.2 0-74.5 0c1 7.8 5.7 15 12.6 18.9 6.6 3.8 14.7 4.6 22.1 3 8.1-1.6 15.4-7 19-14.5 5.9 3 11.8 6 17.7 9-3.8 8.3-10.7 14.9-18.6 19.3-14.7 8.1-33.3 8.6-48.5 1.7-8.2-3.8-15.3-10-20-17.8-6.9-11.5-8.6-25.7-6.1-38.7 2.4-12.5 9.8-24.2 20.5-31.2zm10.4 16.8c-4.9 3.7-8.2 9.4-9 15.5q25.5 0 51 0c-0.3-3.5-1.4-6.9-3.3-9.8-3.2-5.2-8.7-8.8-14.5-10.3-8.2-2.1-17.4-0.7-24.2 4.6zm85.2-17.1c7.8-5.6 17.6-7.6 27.1-7.3 9.4 0.2 19.1 3.3 26.1 9.8 6 5.3 9.5 13.2 9.3 21.2-6.6 1.3-13.3 2.5-19.9 3.7-0.6-3.4-0.8-7.1-2.8-10-2.6-3.9-7.1-6-11.6-6.5-3.9-0.5-7.9-0.1-11.4 1.5-2.7 1.2-5.1 3.5-5.6 6.5-0.5 2.5 0.6 5.1 2.6 6.6 2.6 2.2 5.8 3.4 9 4.4 10 3 20.5 4.7 29.7 9.7 6 3.1 11.2 8.2 13.2 14.8 2.5 8.6 1.3 18.7-4.5 25.7-5.1 6.4-13 9.9-20.8 11.5-10.5 2-21.6 1.6-31.6-2.1-6.7-2.5-13-6.4-17.4-12.1-3.3-4.3-5.2-9.8-5.1-15.3q10.3-1.9 20.6-3.9c0.3 3.3 1.2 6.5 3.3 9.1 3.2 3.9 8.2 5.9 13.1 6.6 4.8 0.6 9.8 0.4 14.3-1.3 3-1.2 5.6-3.5 6.3-6.7 0.7-2.7-0.4-5.7-2.5-7.5-3-2.5-6.8-3.8-10.5-4.9-8.7-2.7-17.9-4.4-26.1-8.4-4.8-2.3-9.3-5.5-12.2-10.1-3.3-4.9-4.1-11.2-3.4-17 0.8-7.2 5-13.8 10.8-18zm154-3c10.4-4.8 22.3-5.7 33.4-3.2 8.7 1.9 16.9 6.4 22.9 13 6.3 6.9 10.2 15.6 12 24.6 1.4 6.3 1.6 12.8 1.5 19.2-24.8 0-49.7 0-74.5 0 0.8 6.9 4.6 13.5 10.4 17.5 7.7 5.5 18 6.4 27 3.7 6.9-2.2 13.1-7.1 16.2-13.8 6 3 11.9 6 17.8 9-3.4 7.3-9.1 13.3-15.9 17.6-8.5 5.4-18.7 8.4-28.8 8.1-10.5 0.1-21.1-2.8-29.7-8.8-7-4.9-12.5-11.8-15.8-19.6-3.6-8.5-4.7-17.9-3.9-27.1 0.9-9.7 4.5-19.3 10.6-27 4.5-5.7 10.3-10.2 16.8-13.2zm6.5 18.6c-6 3.6-10.3 10-11.2 17q25.5 0 51.1 0c-0.6-6.6-4.3-12.7-9.7-16.4-8.8-5.9-21.1-6.1-30.2-0.6zm173.1-21.3c9.1-2.6 19.1-2.6 28.1 0.7 7.2 2.5 13.5 7.5 17.5 14 4.6 7.4 6.3 16.3 6.4 24.9q0 28.5 0 57-11.5 0-23 0c-0.1-18.5 0-37-0.1-55.6-0.3-5.8-1.7-12-5.7-16.4-3.3-3.7-8.2-5.6-13.1-6.1-7.4-0.8-15.7 1.4-20.4 7.5-3.9 4.7-5.5 10.9-5.7 17q0 26.8 0 53.6-11.5 0-23 0 0-48.2 0-96.5 9.8 0 19.7 0c0 4.5 0 9.1 0 13.6 4.4-6.8 11.5-11.5 19.3-13.7zm247.7 0.9c7.6-2.7 15.9-3.4 23.8-2.1 7.7 1.3 15.1 4.8 20.4 10.5 5.1 5.4 8.2 12.4 9.5 19.7 1.2 6.2 1 12.5 1 18.8q0 24.4 0 48.8-11.5 0-23 0 0-23.9 0-47.8c0.1-6.3 0.2-12.9-2.4-18.8-1.9-4.7-5.8-8.6-10.7-10.2-6.2-2.1-13.3-1.9-19.3 0.8-5.5 2.5-9.4 7.6-11.1 13.3-2.2 6.8-1.4 14.1-1.6 21.2q0 20.8 0 41.5-11.5 0-23 0 0-48.2 0-96.5 10 0 19.9 0c0 4.5 0 9 0 13.5 3.8-6 9.8-10.3 16.5-12.7zm144.5-2.1c10.5-1.5 21.5-0.3 31.2 4.1 7.2 3.4 13.7 8.5 18.5 14.9 11.9 15.9 13 38.9 3.3 56.1-3.5 6.4-8.6 11.8-14.6 15.9-8.8 5.9-19.4 8.8-29.9 8.6-10.2 0.2-20.5-2.5-29-8-7.5-4.8-13.5-11.7-17.2-19.7-7.9-17.1-6.1-38.7 5.6-53.7 7.8-10 19.7-16.5 32.1-18.2zm4.3 20.6c-7.8 1-15.1 5.5-19.5 12-6.2 9.3-6.6 22-1.3 31.7 2.9 5.2 7.5 9.5 12.9 11.9 10.1 4.6 23 2.9 31.3-4.6 5.3-4.6 8.6-11.3 9.4-18.2 1.1-8.6-1.4-17.7-7.4-24.1-6.3-6.9-16.2-10-25.4-8.7zm106.6-19.9c9.2-2.2 19.2-1.8 28 1.8 6.8 2.8 12.6 7.9 16.3 14.3 4 6.9 5.6 15 5.8 23q0 29 0 58-11.6 0-23.1 0 0-22.2 0-44.4c0-4.1 0.1-8.1 0-12.1-0.4-5.3-1.7-10.7-5.1-14.8-3.2-4.2-8.5-6.3-13.7-6.8-7.3-0.7-15.2 1.3-20 7-4.1 4.7-5.8 11-6.1 17.1-0.1 18 0 36 0 54q-11.5 0-23 0-0.1-48.2 0-96.5 9.8 0 19.7 0c0 4.6 0 9.1 0 13.7 4.7-7.5 12.8-12.3 21.2-14.3zm-603.2 0.6q9.5 0 19 0 0 6 0 12c3.7-5.9 10-9.9 16.8-11.5 5.3-1.3 10.8-1.3 16.2-0.4 0 6.7-0.2 13.4-0.1 20.2-6.1-0.9-12.4-1.2-18.2 0.9-3.8 1.3-7.1 4-8.9 7.6-1.5 3-2.2 6.4-2.1 9.7-0.1 19.4 0.2 38.7 0.1 58q-11.4 0-22.8 0 0-48.2 0-96.5zm416.6 0q11.4 0 22.8 0 0 48.3 0 96.5-11.4 0-22.8 0 0-48.2 0-96.5z"/>
	</g>
</svg>